# xmcd CD database file
#
# Track frame offsets:
#	150
#	20977
#	38292
#	51647
#	69985
#	88677
#	109032
#	132127
#	148320
#	165335
#	183702
#	201192
#	219777
#	237555
#
# Disc length: 3467 seconds
#
# Revision: 3
# Processed by: cddbd v1.5.1PL0 Copyright (c) Steve Scherf et al.
# Submitted via: CDex 1.51
#
DISCID=cb0d890e
DTITLE=Krosfyah - Krosfyah.com
DYEAR=2001
DGENRE=Rhythmic Soul
TTITLE0=Agony
TTITLE1=Huntin
TTITLE2=Out of Control
TTITLE3=One More Time
TTITLE4=Raga Beenie
TTITLE5=Be-sa-me
TTITLE6=Forkin'
TTITLE7=Deja Vu
TTITLE8=Workey
TTITLE9=P*U*S*H
TTITLE10=Sexy Body
TTITLE11=Don't Stop
TTITLE12=Teaser
TTITLE13=Nuff Said
EXTD=YEAR: 2001
EXTT0=
EXTT1=
EXTT2=
EXTT3=
EXTT4=
EXTT5=
EXTT6=
EXTT7=
EXTT8=
EXTT9=
EXTT10=
EXTT11=
EXTT12=
EXTT13=
PLAYORDER=
